# xmcd
#
# Track frame offsets:
#	150
#	24673
#	47479
#	62472
#	91169
#	106621
#	116036
#	138695
#	156287
#	177642
#	196764
#
# Disc length: 2938 seconds
#
# Revision: 0
# Processed by: cddbd v1.5.2PL0 Copyright (c) Steve Scherf et al.
# Submitted via: audiograbber 1.83.01
#
DISCID=8d0b780b
DTITLE=Disparaged - Disparaged The Wrath Of God
DYEAR=2009
DGENRE=Death Metal
TTITLE0=Caught In The Fire
TTITLE1=Tales Of Creation
TTITLE2=Reborn
TTITLE3=The Wrath Of God
TTITLE4=Dying Seed
TTITLE5=The Burial
TTITLE6=Under Foreign Flag
TTITLE7=Thy Will
TTITLE8=Mask Of Worms
TTITLE9=Swallow The Earth
TTITLE10=Bringer Of Death
EXTD=
EXTT0=
EXTT1=
EXTT2=
EXTT3=
EXTT4=
EXTT5=
EXTT6=
EXTT7=
EXTT8=
EXTT9=
EXTT10=
PLAYORDER=
